# xmcd CD database file
#
# Track frame offsets:
#	150
#	44950
#	72537
#	109507
#	165575
#	184870
#	217115
#	240290
#	259095
#
# Disc length: 3746 seconds
#
# Revision: 0
# Processed by: cddbd v1.5.2PL0 Copyright (c) Steve Scherf et al.
# Submitted via: CDex 1.51
#
DISCID=840ea009
DTITLE=Thelonious Monk - It's Monk's Time
DYEAR=1900
DGENRE=Jazz
TTITLE0=Lulu's Back in Town
TTITLE1=Memories of You
TTITLE2=Stuffy Turkey
TTITLE3=Brake's Sake
TTITLE4=Nice Work if You Can Get It (Take 3)
TTITLE5=Shuffle Boil (Retake)
TTITLE6=Epistrophy (Take 1)
TTITLE7=Nice Work If You Can Get It
TTITLE8=Shuffle Boil (Take 5)
EXTD=
EXTT0=
EXTT1=
EXTT2=
EXTT3=
EXTT4=
EXTT5=
EXTT6=
EXTT7=
EXTT8=
PLAYORDER=
